<svg width="24" height="25" viewBox="0 0 24 25" fill="none" xmlns="http://www.w3.org/2000/svg">
<g id="ant-design:instagram-outlined">
<path id="Vector" d="M12.5 1.73828C9.51488 1.73828 9.1395 1.75203 7.96663 1.80428C6.79375 1.85928 5.99487 2.04353 5.295 2.31578C4.56088 2.59191 3.89593 3.02504 3.34663 3.58491C2.7871 4.13449 2.35402 4.79936 2.0775 5.53328C1.80525 6.23178 1.61963 7.03203 1.566 8.20078C1.51375 9.37641 1.5 9.75041 1.5 12.7397C1.5 15.7262 1.51375 16.1002 1.566 17.273C1.621 18.4445 1.80525 19.2434 2.0775 19.9433C2.35938 20.6665 2.73475 21.2798 3.34663 21.8917C3.95713 22.5035 4.57037 22.8803 5.29363 23.1608C5.99487 23.433 6.79238 23.6187 7.96388 23.6723C9.13813 23.7245 9.51213 23.7383 12.5 23.7383C15.4879 23.7383 15.8605 23.7245 17.0347 23.6723C18.2049 23.6173 19.0065 23.433 19.7064 23.1608C20.44 22.8845 21.1045 22.4514 21.6534 21.8917C22.2652 21.2798 22.6406 20.6665 22.9225 19.9433C23.1934 19.2434 23.379 18.4445 23.434 17.273C23.4862 16.1002 23.5 15.7262 23.5 12.7383C23.5 9.75041 23.4862 9.37641 23.434 8.20216C23.379 7.03203 23.1934 6.23178 22.9225 5.53328C22.646 4.79934 22.2129 4.13446 21.6534 3.58491C21.1042 3.02484 20.4392 2.59167 19.705 2.31578C19.0037 2.04353 18.2035 1.85791 17.0334 1.80428C15.8591 1.75203 15.4865 1.73828 12.4973 1.73828H12.5014H12.5ZM11.5141 3.72103H12.5014C15.4384 3.72103 15.7863 3.73066 16.9454 3.78428C18.0179 3.83241 18.6009 4.01253 18.9886 4.16241C19.5015 4.36178 19.8686 4.60103 20.2536 4.98603C20.6386 5.37103 20.8765 5.73678 21.0759 6.25103C21.2271 6.63741 21.4059 7.22041 21.454 8.29291C21.5076 9.45203 21.5186 9.79991 21.5186 12.7355C21.5186 15.6712 21.5076 16.0204 21.454 17.1795C21.4059 18.252 21.2257 18.8337 21.0759 19.2214C20.8995 19.699 20.618 20.1309 20.2522 20.485C19.8672 20.87 19.5015 21.1079 18.9873 21.3073C18.6023 21.4585 18.0192 21.6373 16.9454 21.6868C15.7863 21.739 15.4384 21.7514 12.5014 21.7514C9.56438 21.7514 9.21513 21.739 8.056 21.6868C6.9835 21.6373 6.40188 21.4585 6.01412 21.3073C5.53631 21.1312 5.10405 20.8502 4.74913 20.485C4.38303 20.1303 4.10112 19.6981 3.92412 19.22C3.77425 18.8337 3.59413 18.2507 3.546 17.1782C3.49375 16.019 3.48275 15.6712 3.48275 12.7328C3.48275 9.79578 3.49375 9.44928 3.546 8.29016C3.5955 7.21766 3.77425 6.63466 3.9255 6.24691C4.12488 5.73403 4.36412 5.36691 4.74913 4.98191C5.13412 4.59691 5.49988 4.35903 6.01412 4.15966C6.40188 4.00841 6.9835 3.82966 8.056 3.78016C9.07075 3.73341 9.464 3.71966 11.5141 3.71828V3.72103ZM18.3726 5.54703C18.1993 5.54703 18.0276 5.58117 17.8675 5.64751C17.7073 5.71385 17.5618 5.81108 17.4392 5.93365C17.3167 6.05622 17.2194 6.20174 17.1531 6.36189C17.0868 6.52204 17.0526 6.69369 17.0526 6.86703C17.0526 7.04038 17.0868 7.21202 17.1531 7.37217C17.2194 7.53232 17.3167 7.67784 17.4392 7.80041C17.5618 7.92299 17.7073 8.02022 17.8675 8.08655C18.0276 8.15289 18.1993 8.18703 18.3726 8.18703C18.7227 8.18703 19.0585 8.04796 19.306 7.80041C19.5536 7.55286 19.6926 7.21712 19.6926 6.86703C19.6926 6.51695 19.5536 6.1812 19.306 5.93365C19.0585 5.6861 18.7227 5.54703 18.3726 5.54703ZM12.5014 7.08978C11.7521 7.07809 11.008 7.21557 10.3123 7.49423C9.61671 7.77288 8.98346 8.18713 8.44946 8.71286C7.91546 9.2386 7.49138 9.86531 7.20191 10.5565C6.91244 11.2477 6.76336 11.9896 6.76336 12.739C6.76336 13.4883 6.91244 14.2302 7.20191 14.9214C7.49138 15.6126 7.91546 16.2393 8.44946 16.7651C8.98346 17.2908 9.61671 17.7051 10.3123 17.9837C11.008 18.2624 11.7521 18.3998 12.5014 18.3882C13.9844 18.365 15.3988 17.7597 16.4393 16.7028C17.4799 15.6458 18.0631 14.2221 18.0631 12.739C18.0631 11.2558 17.4799 9.8321 16.4393 8.77519C15.3988 7.71828 13.9844 7.11292 12.5014 7.08978ZM12.5014 9.07116C13.474 9.07116 14.4067 9.45751 15.0944 10.1452C15.7821 10.833 16.1685 11.7657 16.1685 12.7383C16.1685 13.7109 15.7821 14.6436 15.0944 15.3313C14.4067 16.019 13.474 16.4054 12.5014 16.4054C11.5288 16.4054 10.596 16.019 9.90833 15.3313C9.22061 14.6436 8.83425 13.7109 8.83425 12.7383C8.83425 11.7657 9.22061 10.833 9.90833 10.1452C10.596 9.45751 11.5288 9.07116 12.5014 9.07116Z" fill="white"/>
</g>
</svg>
