<svg width="20" height="21" viewBox="0 0 20 21" fill="none" xmlns="http://www.w3.org/2000/svg">
<g id="icon/linkedin">
<path id="Vector" d="M3.33333 7.5261H6.11111V16.9705H3.33333V7.5261ZM4.71389 6.41498H4.69833C3.86944 6.41498 3.33333 5.79721 3.33333 5.02554C3.33333 4.23721 3.88611 3.63721 4.73 3.63721C5.575 3.63721 6.09556 4.23721 6.11111 5.02554C6.11111 5.79665 5.575 6.41498 4.71389 6.41498ZM16.6667 16.9705H13.8889V11.9155C13.8889 10.6944 13.2083 9.86109 12.1156 9.86109C11.2817 9.86109 10.8306 10.4233 10.6117 10.9667C10.5317 11.1611 10.5556 11.6989 10.5556 11.9705V16.9705H7.77778V7.5261H10.5556V8.97943C10.9561 8.35943 11.5833 7.5261 13.1878 7.5261C15.1756 7.5261 16.6661 8.7761 16.6661 11.5672L16.6667 16.9705Z" fill="white"/>
</g>
</svg>
