<svg width="33" height="33" viewBox="0 0 33 33" fill="none" xmlns="http://www.w3.org/2000/svg">
<g id="List">
<path id="Vector" d="M28.5 15.5V17.5C28.5 17.7652 28.3946 18.0196 28.2071 18.2071C28.0196 18.3946 27.7652 18.5 27.5 18.5H5.5C5.23478 18.5 4.98043 18.3946 4.79289 18.2071C4.60536 18.0196 4.5 17.7652 4.5 17.5V15.5C4.5 15.2348 4.60536 14.9804 4.79289 14.7929C4.98043 14.6054 5.23478 14.5 5.5 14.5H27.5C27.7652 14.5 28.0196 14.6054 28.2071 14.7929C28.3946 14.9804 28.5 15.2348 28.5 15.5ZM27.5 22.5H5.5C5.23478 22.5 4.98043 22.6054 4.79289 22.7929C4.60536 22.9804 4.5 23.2348 4.5 23.5V25.5C4.5 25.7652 4.60536 26.0196 4.79289 26.2071C4.98043 26.3946 5.23478 26.5 5.5 26.5H27.5C27.7652 26.5 28.0196 26.3946 28.2071 26.2071C28.3946 26.0196 28.5 25.7652 28.5 25.5V23.5C28.5 23.2348 28.3946 22.9804 28.2071 22.7929C28.0196 22.6054 27.7652 22.5 27.5 22.5ZM27.5 6.5H5.5C5.23478 6.5 4.98043 6.60536 4.79289 6.79289C4.60536 6.98043 4.5 7.23478 4.5 7.5V9.5C4.5 9.76522 4.60536 10.0196 4.79289 10.2071C4.98043 10.3946 5.23478 10.5 5.5 10.5H27.5C27.7652 10.5 28.0196 10.3946 28.2071 10.2071C28.3946 10.0196 28.5 9.76522 28.5 9.5V7.5C28.5 7.23478 28.3946 6.98043 28.2071 6.79289C28.0196 6.60536 27.7652 6.5 27.5 6.5Z" fill="#0404E2"/>
</g>
</svg>
