<svg xmlns="http://www.w3.org/2000/svg" width="24" height="24" viewBox="0 0 24 24" fill="none">
<path fill-rule="evenodd" clip-rule="evenodd" d="M1.59998 5.5998C1.59998 6.04163 1.95815 6.3998 2.39998 6.3998H21.6C22.0418 6.3998 22.4 6.04163 22.4 5.5998C22.4 5.15798 22.0418 4.7998 21.6 4.7998H2.39998C1.95815 4.7998 1.59998 5.15798 1.59998 5.5998ZM2.39998 11.1998H21.6C22.0418 11.1998 22.4 11.558 22.4 11.9998C22.4 12.4416 22.0418 12.7998 21.6 12.7998H2.39998C1.95815 12.7998 1.59998 12.4416 1.59998 11.9998C1.59998 11.558 1.95815 11.1998 2.39998 11.1998ZM2.39998 17.5998H21.6C22.0418 17.5998 22.4 17.958 22.4 18.3998C22.4 18.8416 22.0418 19.1998 21.6 19.1998H2.39998C1.95815 19.1998 1.59998 18.8416 1.59998 18.3998C1.59998 17.958 1.95815 17.5998 2.39998 17.5998Z" fill="#EDEDED"/>
</svg>