<svg width="50" height="50" viewBox="0 0 50 50" fill="none" xmlns="http://www.w3.org/2000/svg">
<g id="Frame">
<path id="Vector" d="M22.6562 23.4375C22.6562 22.9739 22.7937 22.5208 23.0512 22.1354C23.3088 21.75 23.6748 21.4495 24.1031 21.2722C24.5313 21.0948 25.0026 21.0483 25.4572 21.1388C25.9119 21.2292 26.3295 21.4524 26.6573 21.7802C26.9851 22.108 27.2083 22.5256 27.2987 22.9803C27.3892 23.4349 27.3427 23.9061 27.1653 24.3344C26.9879 24.7627 26.6875 25.1287 26.3021 25.3863C25.9167 25.6438 25.4636 25.7812 25 25.7812C24.3784 25.7812 23.7823 25.5343 23.3427 25.0948C22.9032 24.6552 22.6562 24.0591 22.6562 23.4375ZM33.5938 25.7812C34.0573 25.7812 34.5104 25.6438 34.8959 25.3863C35.2813 25.1287 35.5817 24.7627 35.7591 24.3344C35.9365 23.9061 35.9829 23.4349 35.8925 22.9803C35.802 22.5256 35.5788 22.108 35.251 21.7802C34.9233 21.4524 34.5056 21.2292 34.051 21.1388C33.5963 21.0483 33.1251 21.0948 32.6968 21.2722C32.2686 21.4495 31.9025 21.75 31.645 22.1354C31.3875 22.5208 31.25 22.9739 31.25 23.4375C31.25 24.0591 31.4969 24.6552 31.9365 25.0948C32.376 25.5343 32.9721 25.7812 33.5938 25.7812ZM45.3125 10.9375V35.9375C45.3125 36.7663 44.9833 37.5612 44.3972 38.1472C43.8112 38.7333 43.0163 39.0625 42.1875 39.0625H30.5723L27.6738 43.8066C27.3948 44.2674 27.0015 44.6483 26.5319 44.9123C26.0623 45.1762 25.5324 45.3143 24.9938 45.3131C24.4551 45.312 23.9258 45.1716 23.4574 44.9055C22.989 44.6395 22.5973 44.2569 22.3203 43.7949L19.4277 39.0625H7.8125C6.9837 39.0625 6.18884 38.7333 5.60279 38.1472C5.01674 37.5612 4.6875 36.7663 4.6875 35.9375V10.9375C4.6875 10.1087 5.01674 9.31384 5.60279 8.72779C6.18884 8.14174 6.9837 7.8125 7.8125 7.8125H42.1875C43.0163 7.8125 43.8112 8.14174 44.3972 8.72779C44.9833 9.31384 45.3125 10.1087 45.3125 10.9375ZM42.1875 10.9375H7.8125V35.9375H19.4277C19.9657 35.9389 20.4943 36.0785 20.9628 36.3428C21.4314 36.6072 21.8242 36.9875 22.1035 37.4473L25 42.1875L27.8945 37.4375C28.1751 36.9791 28.5687 36.6005 29.0375 36.3379C29.5064 36.0752 30.0349 35.9374 30.5723 35.9375H42.1875V10.9375ZM16.4062 25.7812C16.8698 25.7812 17.3229 25.6438 17.7084 25.3863C18.0938 25.1287 18.3942 24.7627 18.5716 24.3344C18.749 23.9061 18.7954 23.4349 18.705 22.9803C18.6145 22.5256 18.3913 22.108 18.0635 21.7802C17.7358 21.4524 17.3181 21.2292 16.8635 21.1388C16.4089 21.0483 15.9376 21.0948 15.5093 21.2722C15.0811 21.4495 14.715 21.75 14.4575 22.1354C14.2 22.5208 14.0625 22.9739 14.0625 23.4375C14.0625 24.0591 14.3094 24.6552 14.749 25.0948C15.1885 25.5343 15.7846 25.7812 16.4062 25.7812Z" fill="white"/>
</g>
</svg>
