<svg width="24" height="21" viewBox="0 0 24 21" fill="none" xmlns="http://www.w3.org/2000/svg">
<g id="ant-design:twitter-outlined">
<path id="Vector" d="M8.41075 19.7383C16.713 19.7383 21.2546 12.8114 21.2546 6.81497C21.2546 6.62113 21.2546 6.42453 21.2464 6.23069C22.1306 5.58617 22.8937 4.78821 23.5 3.8742C22.6741 4.2409 21.7988 4.48258 20.9026 4.5914C21.8466 4.02323 22.5536 3.12928 22.8923 2.07568C22.0054 2.60475 21.0346 2.97615 20.0226 3.17363C19.3423 2.44401 18.4419 1.96065 17.4611 1.79844C16.4803 1.63623 15.4737 1.80421 14.5973 2.27636C13.7209 2.74851 13.0236 3.49848 12.6134 4.4101C12.2031 5.32173 12.1029 6.34413 12.3281 7.31894C10.5334 7.22833 8.77762 6.75885 7.17468 5.94097C5.57175 5.12309 4.15744 3.97506 3.0235 2.57135C2.44784 3.57249 2.27216 4.75671 2.53214 5.88354C2.79211 7.01037 3.46825 7.99533 4.42325 8.63841C3.70762 8.61393 3.00772 8.42043 2.38 8.07352V8.13582C2.38123 9.18459 2.74205 10.2008 3.40145 11.0126C4.06086 11.8244 4.9784 12.382 5.999 12.5913C5.61161 12.6987 5.21144 12.7523 4.80963 12.7505C4.52635 12.7514 4.24365 12.7249 3.96537 12.6716C4.25383 13.5744 4.8155 14.3637 5.57171 14.929C6.32793 15.4944 7.24081 15.8074 8.1825 15.8242C6.58276 17.0894 4.60668 17.7756 2.5725 17.7722C2.21407 17.7738 1.85588 17.7529 1.5 17.7099C3.56458 19.0353 5.96228 19.739 8.41075 19.7383Z" fill="white"/>
</g>
</svg>
